<?xml version="1.0" encoding="utf-8"?>
<!-- Generator: Adobe Illustrator 23.0.3, SVG Export Plug-In . SVG Version: 6.00 Build 0)  -->
<svg version="1.1" id="Calque_1" xmlns="http://www.w3.org/2000/svg" xmlns:xlink="http://www.w3.org/1999/xlink" x="0px" y="0px"
	 viewBox="0 0 300 300" style="enable-background:new 0 0 300 300;" xml:space="preserve">
<style type="text/css">
	.st0{fill:#23BBEA;}
	.st1{fill:#009DE0;}
	.st2{fill:#006FB7;}
	.st3{fill:#003883;}
	.st4{fill:#D20073;}
</style>
<g>
	<path class="st0" d="M14.4,216c-19.2,19.2-19.2,50.5,0,69.7L201.5,98.5h-69.7L14.4,216z"/>
	<path class="st1" d="M14.4,285.6c19.2,19.2,50.5,19.2,69.7,0l117.4-117.4V98.5L14.4,285.6z"/>
	<path class="st2" d="M201.5,98.5v69.7L283.7,86c0.4-0.4,0.8-0.9,1.3-1.4c-8.9,8.6-21,14-34.2,14L201.5,98.5L201.5,98.5z"/>
	<path class="st3" d="M300,49.3C300,22.2,277.8,0,250.7,0l0,0c-27.1,0-49.3,22.2-49.3,49.3v49.3h49.3C277.8,98.5,300,76.4,300,49.3z
		"/>
	<g>
		<path class="st4" d="M49.3,0C22.2,0,0,22.2,0,49.3l0,0c0,27.1,22.2,49.3,49.3,49.3h82.5L214,16.3c0.4-0.4,0.9-0.8,1.4-1.3l0,0
			c9-9.2,21.5-15,35.3-15C250.7,0,49.3,0,49.3,0z"/>
	</g>
	<g>
		<path class="st4" d="M300,250.7c0,27.1-22.2,49.3-49.3,49.3l0,0c-27.1,0-49.3-22.2-49.3-49.3v-82.5L283.7,86
			c0.4-0.4,0.8-0.9,1.3-1.4l0,0c9.2-9,15-21.5,15-35.3V250.7z"/>
	</g>
	<path class="st2" d="M201.5,98.5h-69.7L214,16.3c0.4-0.4,0.9-0.8,1.4-1.3c-8.6,8.9-14,21-14,34.2v49.3H201.5z"/>
</g>
</svg>
